<svg width="296" height="41" viewBox="0 0 296 41" fill="none" xmlns="http://www.w3.org/2000/svg">
<rect y="0.4375" width="296" height="40" rx="11" fill="#0E1E14"/>
<path d="M103.322 20.3695V21.0415C103.322 22.3855 102.878 23.4868 101.992 24.3455C101.105 25.1948 99.9476 25.6195 98.5196 25.6195C97.0076 25.6195 95.757 25.1295 94.7676 24.1495C93.7876 23.1695 93.2976 21.9655 93.2976 20.5375C93.2976 19.1188 93.7876 17.9195 94.7676 16.9395C95.757 15.9502 96.9796 15.4555 98.4356 15.4555C99.3503 15.4555 100.186 15.6655 100.942 16.0855C101.698 16.5055 102.286 17.0702 102.706 17.7795L101.32 18.5775C101.058 18.1108 100.671 17.7375 100.158 17.4575C99.6443 17.1682 99.0703 17.0235 98.4356 17.0235C97.409 17.0235 96.5643 17.3595 95.9016 18.0315C95.239 18.7035 94.9076 19.5435 94.9076 20.5515C94.9076 21.5595 95.239 22.3948 95.9016 23.0575C96.5736 23.7202 97.451 24.0515 98.5336 24.0515C99.4016 24.0515 100.106 23.8508 100.648 23.4495C101.198 23.0388 101.548 22.4928 101.698 21.8115H98.4216V20.3695H103.322ZM105.885 22.5815C105.997 23.1135 106.254 23.5242 106.655 23.8135C107.057 24.0935 107.547 24.2335 108.125 24.2335C108.928 24.2335 109.53 23.9442 109.931 23.3655L111.177 24.0935C110.487 25.1108 109.465 25.6195 108.111 25.6195C106.973 25.6195 106.053 25.2742 105.353 24.5835C104.653 23.8835 104.303 23.0015 104.303 21.9375C104.303 20.8922 104.649 20.0195 105.339 19.3195C106.03 18.6102 106.917 18.2555 107.999 18.2555C109.026 18.2555 109.866 18.6148 110.519 19.3335C111.182 20.0522 111.513 20.9248 111.513 21.9515C111.513 22.1102 111.495 22.3202 111.457 22.5815H105.885ZM105.871 21.3495H109.987C109.885 20.7802 109.647 20.3508 109.273 20.0615C108.909 19.7722 108.48 19.6275 107.985 19.6275C107.425 19.6275 106.959 19.7815 106.585 20.0895C106.212 20.3975 105.974 20.8175 105.871 21.3495ZM116.531 19.8935H114.795V23.2535C114.795 23.5428 114.86 23.7528 114.991 23.8835C115.122 24.0048 115.313 24.0748 115.565 24.0935C115.826 24.1028 116.148 24.0982 116.531 24.0795V25.4375C115.374 25.5775 114.543 25.4795 114.039 25.1435C113.535 24.7982 113.283 24.1682 113.283 23.2535V19.8935H111.995V18.4375H113.283V16.9255L114.795 16.4775V18.4375H116.531V19.8935ZM124.831 25.6195C123.888 25.6195 123.086 25.4048 122.423 24.9755C121.77 24.5462 121.312 23.9582 121.051 23.2115L122.437 22.3995C122.829 23.5008 123.641 24.0515 124.873 24.0515C125.48 24.0515 125.932 23.9348 126.231 23.7015C126.539 23.4588 126.693 23.1462 126.693 22.7635C126.693 22.3622 126.53 22.0588 126.203 21.8535C125.876 21.6388 125.298 21.4055 124.467 21.1535C124 21.0135 123.622 20.8828 123.333 20.7615C123.044 20.6402 122.736 20.4722 122.409 20.2575C122.092 20.0335 121.854 19.7582 121.695 19.4315C121.536 19.1048 121.457 18.7222 121.457 18.2835C121.457 17.4155 121.765 16.7295 122.381 16.2255C122.997 15.7122 123.739 15.4555 124.607 15.4555C125.391 15.4555 126.077 15.6468 126.665 16.0295C127.253 16.4122 127.706 16.9395 128.023 17.6115L126.665 18.3955C126.254 17.4808 125.568 17.0235 124.607 17.0235C124.14 17.0235 123.767 17.1355 123.487 17.3595C123.207 17.5742 123.067 17.8682 123.067 18.2415C123.067 18.6055 123.207 18.8948 123.487 19.1095C123.776 19.3148 124.294 19.5342 125.041 19.7675C125.414 19.8888 125.685 19.9822 125.853 20.0475C126.03 20.1035 126.273 20.1968 126.581 20.3275C126.898 20.4582 127.136 20.5888 127.295 20.7195C127.454 20.8502 127.622 21.0135 127.799 21.2095C127.986 21.4055 128.116 21.6295 128.191 21.8815C128.266 22.1335 128.303 22.4182 128.303 22.7355C128.303 23.6222 127.981 24.3268 127.337 24.8495C126.702 25.3628 125.867 25.6195 124.831 25.6195ZM133.293 19.8935H131.557V23.2535C131.557 23.5428 131.622 23.7528 131.753 23.8835C131.884 24.0048 132.075 24.0748 132.327 24.0935C132.588 24.1028 132.91 24.0982 133.293 24.0795V25.4375C132.136 25.5775 131.305 25.4795 130.801 25.1435C130.297 24.7982 130.045 24.1682 130.045 23.2535V19.8935H128.757V18.4375H130.045V16.9255L131.557 16.4775V18.4375H133.293V19.8935ZM139.921 18.4375H141.433V25.4375H139.921V24.4295C139.352 25.2228 138.535 25.6195 137.471 25.6195C136.51 25.6195 135.688 25.2648 135.007 24.5555C134.326 23.8368 133.985 22.9642 133.985 21.9375C133.985 20.9015 134.326 20.0288 135.007 19.3195C135.688 18.6102 136.51 18.2555 137.471 18.2555C138.535 18.2555 139.352 18.6475 139.921 19.4315V18.4375ZM136.127 23.5475C136.547 23.9675 137.074 24.1775 137.709 24.1775C138.344 24.1775 138.871 23.9675 139.291 23.5475C139.711 23.1182 139.921 22.5815 139.921 21.9375C139.921 21.2935 139.711 20.7615 139.291 20.3415C138.871 19.9122 138.344 19.6975 137.709 19.6975C137.074 19.6975 136.547 19.9122 136.127 20.3415C135.707 20.7615 135.497 21.2935 135.497 21.9375C135.497 22.5815 135.707 23.1182 136.127 23.5475ZM144.707 19.6135C145.09 18.7455 145.809 18.3115 146.863 18.3115V19.9495C146.285 19.9122 145.781 20.0522 145.351 20.3695C144.922 20.6775 144.707 21.1908 144.707 21.9095V25.4375H143.195V18.4375H144.707V19.6135ZM152.064 19.8935H150.328V23.2535C150.328 23.5428 150.394 23.7528 150.524 23.8835C150.655 24.0048 150.846 24.0748 151.098 24.0935C151.36 24.1028 151.682 24.0982 152.064 24.0795V25.4375C150.907 25.5775 150.076 25.4795 149.572 25.1435C149.068 24.7982 148.816 24.1682 148.816 23.2535V19.8935H147.528V18.4375H148.816V16.9255L150.328 16.4775V18.4375H152.064V19.8935ZM154.339 22.5815C154.451 23.1135 154.707 23.5242 155.109 23.8135C155.51 24.0935 156 24.2335 156.579 24.2335C157.381 24.2335 157.983 23.9442 158.385 23.3655L159.631 24.0935C158.94 25.1108 157.918 25.6195 156.565 25.6195C155.426 25.6195 154.507 25.2742 153.807 24.5835C153.107 23.8835 152.757 23.0015 152.757 21.9375C152.757 20.8922 153.102 20.0195 153.793 19.3195C154.483 18.6102 155.37 18.2555 156.453 18.2555C157.479 18.2555 158.319 18.6148 158.973 19.3335C159.635 20.0522 159.967 20.9248 159.967 21.9515C159.967 22.1102 159.948 22.3202 159.911 22.5815H154.339ZM154.325 21.3495H158.441C158.338 20.7802 158.1 20.3508 157.727 20.0615C157.363 19.7722 156.933 19.6275 156.439 19.6275C155.879 19.6275 155.412 19.7815 155.039 20.0895C154.665 20.3975 154.427 20.8175 154.325 21.3495ZM166.8 15.6375H168.312V25.4375H166.8V24.4295C166.231 25.2228 165.414 25.6195 164.35 25.6195C163.389 25.6195 162.567 25.2648 161.886 24.5555C161.205 23.8368 160.864 22.9642 160.864 21.9375C160.864 20.9015 161.205 20.0288 161.886 19.3195C162.567 18.6102 163.389 18.2555 164.35 18.2555C165.414 18.2555 166.231 18.6475 166.8 19.4315V15.6375ZM163.006 23.5475C163.426 23.9675 163.953 24.1775 164.588 24.1775C165.223 24.1775 165.75 23.9675 166.17 23.5475C166.59 23.1182 166.8 22.5815 166.8 21.9375C166.8 21.2935 166.59 20.7615 166.17 20.3415C165.75 19.9122 165.223 19.6975 164.588 19.6975C163.953 19.6975 163.426 19.9122 163.006 20.3415C162.586 20.7615 162.376 21.2935 162.376 21.9375C162.376 22.5815 162.586 23.1182 163.006 23.5475Z" fill="white"/>
<circle cx="191.5" cy="20.4375" r="12" fill="white"/>
<path d="M195.569 20.1775C195.537 20.0931 195.488 20.016 195.425 19.9506L191.987 16.5128C191.923 16.4486 191.847 16.3978 191.763 16.3631C191.679 16.3284 191.59 16.3105 191.499 16.3105C191.316 16.3105 191.14 16.3833 191.011 16.5128C190.947 16.5769 190.896 16.653 190.861 16.7367C190.826 16.8205 190.809 16.9103 190.809 17.0009C190.809 17.184 190.881 17.3596 191.011 17.4891L193.28 19.7512H188.061C187.879 19.7512 187.704 19.8236 187.575 19.9526C187.446 20.0815 187.374 20.2564 187.374 20.4387C187.374 20.6211 187.446 20.796 187.575 20.9249C187.704 21.0539 187.879 21.1263 188.061 21.1263H193.28L191.011 23.3884C190.946 23.4523 190.895 23.5284 190.86 23.6121C190.825 23.6959 190.807 23.7858 190.807 23.8766C190.807 23.9673 190.825 24.0572 190.86 24.141C190.895 24.2248 190.946 24.3008 191.011 24.3647C191.075 24.4292 191.151 24.4803 191.234 24.5152C191.318 24.5501 191.408 24.5681 191.499 24.5681C191.59 24.5681 191.68 24.5501 191.763 24.5152C191.847 24.4803 191.923 24.4292 191.987 24.3647L195.425 20.9269C195.488 20.8615 195.537 20.7844 195.569 20.7C195.638 20.5326 195.638 20.3449 195.569 20.1775Z" fill="#0E1E14"/>
</svg>
